# xmcd
#
# Track frame offsets: 
#        183
#        14018
#        26538
#        36735
#        51565
#        64288
#        79175
#        97183
#        111773
#        123080
#        137768
#        148960
#        168265
#        186605
#        201660
#        214858
#        228593
#        242783
#
# Disc length: 3361 seconds
#
# Revision: 2
# Processed by: cddbd v1.5PL3 Copyright (c) Steve Scherf et al.
# Submitted via: ExactAudioCopy v0.95a4
#
DISCID=250d1f12
DTITLE=Jack Lantier - Les plus belles chansons
DYEAR=1993
DGENRE=Country
TTITLE0=Maman, la plus belle du monde
TTITLE1=Maman
TTITLE2=Voulez-vous danser grand-mère?
TTITLE3=Ma grand-mère
TTITLE4=Mon coeur est un violon
TTITLE5=Ah ce qu'on s'aimait
TTITLE6=Ah le petit vin blanc
TTITLE7=C'est magnifique du film 'Cancan'
TTITLE8=La Mattchiche
TTITLE9=Les vielles de chez nous
TTITLE10=Nuit de chine
TTITLE11=La paloma
TTITLE12=Que reste-t-il de nos amours ?
TTITLE13=Douce France
TTITLE14=Adieu Venise provençale
TTITLE15=Ramona
TTITLE16=Thé pour deux
TTITLE17=Adios Muchachos
EXTD=YEAR: 1993
EXTT0=
EXTT1=
EXTT2=
EXTT3=
EXTT4=
EXTT5=
EXTT6=
EXTT7=
EXTT8=
EXTT9=
EXTT10=
EXTT11=
EXTT12=
EXTT13=
EXTT14=
EXTT15=
EXTT16=
EXTT17=
PLAYORDER=
